<svg width="18" height="22" viewBox="0 0 18 22" fill="none" xmlns="http://www.w3.org/2000/svg">
<path fill-rule="evenodd" clip-rule="evenodd" d="M9.00025 0C6.28938 0 4.09179 1.99655 4.09179 4.45944V4.75684H3.09186C1.89095 4.75684 1.63616 4.75794 1.63616 4.75794L0.171435 19.843C0.132285 20.3565 0 21.9995 0 21.9995C0 21.9995 1.41454 22 2.0813 22H15.9197C16.5864 22 18 21.9995 18 21.9995C18 21.9995 17.8686 20.3565 17.8296 19.843L16.3615 4.75706C16.3615 4.75706 16.11 4.75684 14.9091 4.75684H13.9088V4.45944C13.9088 1.99655 11.7111 0 9.00025 0ZM11.9453 6.54061V8.02699H13.9088V6.54061H14.809C14.8296 6.57451 14.8539 6.63242 14.8602 6.7155L15.8709 19.9664C15.8796 20.0813 15.8489 20.1679 15.8196 20.2162H2.18138C2.15214 20.1679 2.12136 20.0813 2.13014 19.9664L3.14069 6.71549C3.14703 6.63237 3.17136 6.57451 3.19193 6.54061H4.09179V8.02699H6.05517V6.54061H11.9453ZM11.9453 4.75684V4.45944C11.9453 2.98172 10.6267 1.78377 9.00025 1.78377C7.37373 1.78377 6.05517 2.98172 6.05517 4.45944V4.75684H11.9453Z" fill="black"/>
</svg>
