<svg width="16" height="16" viewBox="0 0 16 16" fill="none" xmlns="http://www.w3.org/2000/svg">
<g clip-path="url(#clip0_31095_194399)">
<path fill-rule="evenodd" clip-rule="evenodd" d="M-3.05176e-05 0.999878H10.0809V3.2158H12.2592L15.9915 7.5V11.7603C15.8912 11.8017 14.9759 11.7464 14.8821 11.7603C14.7811 13.0067 13.7338 13.9999 12.4392 13.9999C11.1529 13.9999 10.1107 13.0193 9.99841 11.784H7.05855C6.78647 13.0452 5.66139 13.9999 4.30054 13.9999C2.91332 13.9999 1.77111 13.0078 1.52769 11.7104H-8.56817e-06L-3.05176e-05 0.999878ZM1.58134 10.4448C1.90966 9.26244 2.99692 8.38631 4.30054 8.38631C5.66139 8.38631 6.78647 9.34105 7.05855 10.6022H8.87856V2.19987H1.22052L1.2023 10.4448H1.58134ZM10.1862 10.6022H10.0809V4.39767H11.7206L14.823 7.73212V10.5897C14.823 10.5897 14.702 10.5919 14.6884 10.5934C14.3128 9.73242 13.4516 9.12494 12.4392 9.12494C11.4234 9.12494 10.5598 9.73656 10.1862 10.6022ZM4.30054 9.56812C3.41543 9.56812 2.68206 10.287 2.68206 11.1931C2.68206 12.0993 3.41543 12.8181 4.30054 12.8181C5.18566 12.8181 5.91903 12.0993 5.91903 11.1931C5.91903 10.287 5.18566 9.56812 4.30054 9.56812ZM12.4392 10.3068C11.7584 10.3068 11.1907 10.8603 11.1907 11.5624C11.1907 12.2646 11.7584 12.8181 12.4392 12.8181C13.12 12.8181 13.6878 12.2646 13.6878 11.5624C13.6878 10.8603 13.12 10.3068 12.4392 10.3068Z" fill="#676560"/>
</g>
<defs>
<clipPath id="clip0_31095_194399">
<rect width="16" height="16" fill="white"/>
</clipPath>
</defs>
</svg>