<svg width="23" height="19" viewBox="0 0 23 19" fill="none" xmlns="http://www.w3.org/2000/svg">
<g clip-path="url(#clip0_220_65)">
<path d="M11.0729 19C10.8231 19 10.578 18.9576 10.3377 18.8724C10.0974 18.7874 9.87151 18.6503 9.66 18.4612L7.95871 16.9299C5.8633 15.096 4.013 13.3048 2.4078 11.556C0.802599 9.80726 0 7.90252 0 5.84181C0 4.17777 0.575276 2.78814 1.72584 1.67289C2.87639 0.557628 4.31001 0 6.02671 0C7.01092 0 7.93941 0.203235 8.81223 0.609704C9.68502 1.01617 10.4386 1.59751 11.0729 2.35374C11.7458 1.59751 12.5115 1.01617 13.3701 0.609704C14.2286 0.203235 15.1419 0 16.1101 0C17.8271 0 19.2624 0.557628 20.4158 1.67289C21.5692 2.78814 22.146 4.17777 22.146 5.84181C22.146 7.90252 21.3434 9.80726 19.7381 11.556C18.133 13.3048 16.2827 15.096 14.1872 16.9299L12.486 18.4612C12.2745 18.6503 12.0486 18.7874 11.8083 18.8724C11.568 18.9576 11.3229 19 11.0729 19ZM10.0926 4.48062C9.6312 3.70548 9.05447 3.10523 8.36241 2.67986C7.67035 2.25449 6.89178 2.04179 6.02671 2.04179C4.89798 2.04179 3.95739 2.401 3.20491 3.11941C2.45243 3.83781 2.07618 4.749 2.07618 5.85294C2.07618 6.8097 2.42221 7.81744 3.11427 8.87614C3.80633 9.93483 4.63296 10.97 5.59417 11.9814C6.55536 12.9927 7.54539 13.9333 8.56426 14.803C9.58309 15.6726 10.4194 16.3911 11.0729 16.9582C11.7266 16.3911 12.5629 15.6726 13.5817 14.803C14.6006 13.9333 15.5906 12.9927 16.5517 11.9814C17.513 10.97 18.3396 9.93483 19.0317 8.87614C19.7238 7.81744 20.0698 6.8097 20.0698 5.85294C20.0698 4.749 19.6936 3.83781 18.9411 3.11941C18.1886 2.401 17.248 2.04179 16.1192 2.04179C15.2542 2.04179 14.4709 2.25449 13.7692 2.67986C13.0675 3.10523 12.486 3.70548 12.0246 4.48062C11.9284 4.66967 11.7934 4.80673 11.6195 4.8918C11.4455 4.97688 11.2629 5.01941 11.0716 5.01941C10.8803 5.01941 10.6933 4.97688 10.5107 4.8918C10.3281 4.80673 10.1887 4.66967 10.0926 4.48062Z" fill="black"/>
</g>
<defs>
<clipPath id="clip0_220_65">
<rect width="23" height="19" fill="white"/>
</clipPath>
</defs>
</svg>
