<svg width="16" height="16" viewBox="0 0 16 16" fill="none" xmlns="http://www.w3.org/2000/svg">
<g clip-path="url(#clip0_30434_136911)">
<path fill-rule="evenodd" clip-rule="evenodd" d="M14.2141 1.78585L2.16838 6.48664L6.90051 8.32691C6.90567 8.32892 6.91166 8.3312 6.91838 8.33375C6.98392 8.35869 7.11938 8.41023 7.23993 8.49623C7.34189 8.56895 7.43105 8.65811 7.50377 8.76006C7.58976 8.88062 7.64131 9.01608 7.66625 9.08162C7.6688 9.08834 7.67108 9.09433 7.67309 9.09949L9.51336 13.8316L14.2141 1.78585ZM14.5217 0.0629158C14.6597 0.0228171 14.9374 -0.0492352 15.2356 0.050399C15.5726 0.162967 15.837 0.427403 15.9496 0.764364C16.0492 1.06261 15.9772 1.34027 15.9371 1.47832C15.8934 1.62876 15.8234 1.80805 15.7532 1.98793L10.7664 14.7665C10.6879 14.9676 10.612 15.1623 10.5377 15.3127C10.4734 15.4425 10.3305 15.7186 10.0339 15.8727C9.70677 16.0426 9.31736 16.0424 8.99045 15.8721C8.69401 15.7177 8.5514 15.4414 8.48733 15.3115C8.41318 15.1611 8.33744 14.9662 8.25924 14.7651L6.29244 9.70756L1.26154 7.7511C1.25267 7.74765 1.24381 7.74421 1.23496 7.74077C1.03379 7.66256 0.838953 7.58682 0.688542 7.51267C0.558581 7.4486 0.282348 7.30598 0.127902 7.00955C-0.042417 6.68265 -0.0426461 6.29323 0.127289 5.96613C0.281386 5.66951 0.557451 5.52657 0.687336 5.46235C0.837661 5.38802 1.03241 5.31205 1.23349 5.23361C1.24233 5.23016 1.25119 5.22671 1.26005 5.22325L14.0121 0.246853C14.1919 0.176619 14.3712 0.106615 14.5217 0.0629158Z" fill="#676560"/>
</g>
<defs>
<clipPath id="clip0_30434_136911">
<rect width="16" height="16" fill="#676560"/>
</clipPath>
</defs>
</svg>