<svg width="397" height="94" viewBox="0 0 397 94" fill="none" xmlns="http://www.w3.org/2000/svg">
<path d="M9.77516e-05 1.92001H19.9681C28.4161 1.92001 35.4134 2.30401 40.9601 3.07201C46.5068 3.84001 50.9441 5.20535 54.2721 7.16801C57.6001 9.13068 59.9468 11.8187 61.3121 15.232C62.6774 18.6453 63.3601 22.9973 63.3601 28.288C63.3601 34.6027 62.5068 39.7654 60.8001 43.776C59.0934 47.7867 56.1494 50.816 51.9681 52.864L75.7761 91.52H54.6561L32.8961 56.192C28.4588 56.192 24.5334 55.8507 21.1201 55.168V91.52H9.77516e-05V1.92001ZM21.1201 46.464C25.6428 46.464 29.2694 46.208 32.0001 45.696C34.7308 45.0987 36.8641 44.1174 38.4001 42.752C39.9361 41.3013 40.9601 39.424 41.4721 37.12C41.9841 34.7307 42.2401 31.7867 42.2401 28.288C42.2401 24.7893 41.9841 21.888 41.4721 19.584C40.9601 17.28 39.9361 15.488 38.4001 14.208C36.8641 12.8427 34.7308 11.904 32.0001 11.392C29.2694 10.7947 25.6428 10.496 21.1201 10.496V46.464ZM82.2501 46.464C82.2501 36.5653 83.0608 28.5867 84.6821 22.528C86.3034 16.4694 88.6928 11.776 91.8501 8.44801C95.0928 5.12002 99.0608 2.90135 103.754 1.79202C108.447 0.597349 113.823 1.52588e-05 119.882 1.52588e-05C125.941 1.52588e-05 131.274 0.597349 135.882 1.79202C140.49 2.90135 144.373 5.16268 147.53 8.57602C150.773 11.904 153.205 16.5973 154.826 22.656C156.447 28.7147 157.258 36.6934 157.258 46.592C157.258 56.4054 156.447 64.384 154.826 70.528C153.205 76.672 150.773 81.4507 147.53 84.864C144.373 88.192 140.49 90.4534 135.882 91.648C131.274 92.8427 125.941 93.44 119.882 93.44C113.823 93.44 108.447 92.8427 103.754 91.648C99.0608 90.4534 95.0928 88.1494 91.8501 84.736C88.6928 81.3227 86.3034 76.544 84.6821 70.4C83.0608 64.256 82.2501 56.2774 82.2501 46.464ZM103.37 46.592C103.37 53.1627 103.37 58.8374 103.37 63.616C103.455 68.3094 103.967 72.192 104.906 75.264C105.93 78.336 107.551 80.5974 109.77 82.048C112.074 83.4987 115.445 84.224 119.882 84.224C124.319 84.224 127.647 83.4987 129.866 82.048C132.17 80.5974 133.749 78.336 134.602 75.264C135.541 72.192 136.01 68.3094 136.01 63.616C136.095 58.8374 136.138 53.1627 136.138 46.592C136.138 40.0213 136.095 34.3893 136.01 29.696C136.01 24.9173 135.541 20.992 134.602 17.92C133.749 14.848 132.17 12.5867 129.866 11.136C127.647 9.68535 124.319 8.96001 119.882 8.96001C115.445 8.96001 112.074 9.68535 109.77 11.136C107.551 12.5867 105.93 14.848 104.906 17.92C103.967 20.992 103.455 24.9173 103.37 29.696C103.37 34.3893 103.37 40.0213 103.37 46.592ZM196.88 93.44C192.443 93.44 188.389 93.056 184.72 92.288C181.136 91.52 178.064 90.0694 175.504 87.936C172.944 85.7174 170.939 82.6454 169.488 78.72C168.123 74.7947 167.44 69.6747 167.44 63.36H181.52C181.52 70.528 182.629 75.6907 184.848 78.848C187.152 81.92 191.035 83.456 196.496 83.456C199.653 83.456 202.213 83.2 204.176 82.688C206.224 82.176 207.803 81.3654 208.912 80.256C210.021 79.0614 210.747 77.568 211.088 75.776C211.515 73.984 211.728 71.7654 211.728 69.12C211.728 65.792 210.704 63.0614 208.656 60.928C206.608 58.7947 204.005 56.9174 200.848 55.296C197.776 53.6747 194.448 52.096 190.864 50.56C187.28 48.9387 183.909 47.0187 180.752 44.8C177.68 42.496 175.12 39.68 173.072 36.352C171.024 32.9387 170 28.5867 170 23.296C170 15.9573 172.603 10.24 177.808 6.14401C183.013 2.04801 190.267 1.52588e-05 199.568 1.52588e-05C203.664 1.52588e-05 207.589 0.298683 211.344 0.896019C215.184 1.49335 218.555 2.77335 221.456 4.73602C224.443 6.69868 226.832 9.47202 228.624 13.056C230.416 16.64 231.312 21.4613 231.312 27.52H217.232C217.147 23.936 216.805 20.992 216.208 18.688C215.696 16.2987 214.843 14.4214 213.648 13.056C212.539 11.6907 211.045 10.752 209.168 10.24C207.376 9.64268 205.157 9.34402 202.512 9.34402C198.331 9.34402 195.429 10.368 193.808 12.416C192.272 14.3787 191.504 16.768 191.504 19.584C191.504 22.656 192.528 25.3014 194.576 27.52C196.624 29.6534 199.184 31.6587 202.256 33.536C205.413 35.328 208.784 37.1627 212.368 39.04C215.952 40.832 219.28 42.9227 222.352 45.312C225.509 47.616 228.112 50.3894 230.16 53.632C232.208 56.7894 233.232 60.7147 233.232 65.408C233.232 71.04 232.592 75.648 231.312 79.232C230.117 82.816 228.069 85.6747 225.168 87.808C222.352 89.9414 218.597 91.392 213.904 92.16C209.296 93.0134 203.621 93.44 196.88 93.44ZM272.88 93.44C268.443 93.44 264.389 93.056 260.72 92.288C257.136 91.52 254.064 90.0694 251.504 87.936C248.944 85.7174 246.939 82.6454 245.488 78.72C244.123 74.7947 243.44 69.6747 243.44 63.36H257.52C257.52 70.528 258.629 75.6907 260.848 78.848C263.152 81.92 267.035 83.456 272.496 83.456C275.653 83.456 278.213 83.2 280.176 82.688C282.224 82.176 283.803 81.3654 284.912 80.256C286.021 79.0614 286.747 77.568 287.088 75.776C287.515 73.984 287.728 71.7654 287.728 69.12C287.728 65.792 286.704 63.0614 284.656 60.928C282.608 58.7947 280.005 56.9174 276.848 55.296C273.776 53.6747 270.448 52.096 266.864 50.56C263.28 48.9387 259.909 47.0187 256.752 44.8C253.68 42.496 251.12 39.68 249.072 36.352C247.024 32.9387 246 28.5867 246 23.296C246 15.9573 248.603 10.24 253.808 6.14401C259.013 2.04801 266.267 1.52588e-05 275.568 1.52588e-05C279.664 1.52588e-05 283.589 0.298683 287.344 0.896019C291.184 1.49335 294.555 2.77335 297.456 4.73602C300.443 6.69868 302.832 9.47202 304.624 13.056C306.416 16.64 307.312 21.4613 307.312 27.52H293.232C293.147 23.936 292.805 20.992 292.208 18.688C291.696 16.2987 290.843 14.4214 289.648 13.056C288.539 11.6907 287.045 10.752 285.168 10.24C283.376 9.64268 281.157 9.34402 278.512 9.34402C274.331 9.34402 271.429 10.368 269.808 12.416C268.272 14.3787 267.504 16.768 267.504 19.584C267.504 22.656 268.528 25.3014 270.576 27.52C272.624 29.6534 275.184 31.6587 278.256 33.536C281.413 35.328 284.784 37.1627 288.368 39.04C291.952 40.832 295.28 42.9227 298.352 45.312C301.509 47.616 304.112 50.3894 306.16 53.632C308.208 56.7894 309.232 60.7147 309.232 65.408C309.232 71.04 308.592 75.648 307.312 79.232C306.117 82.816 304.069 85.6747 301.168 87.808C298.352 89.9414 294.597 91.392 289.904 92.16C285.296 93.0134 279.621 93.44 272.88 93.44ZM322 46.464C322 36.5653 322.811 28.5867 324.432 22.528C326.053 16.4694 328.443 11.776 331.6 8.44801C334.843 5.12002 338.811 2.90135 343.504 1.79202C348.197 0.597349 353.573 1.52588e-05 359.632 1.52588e-05C365.691 1.52588e-05 371.024 0.597349 375.632 1.79202C380.24 2.90135 384.123 5.16268 387.28 8.57602C390.523 11.904 392.955 16.5973 394.576 22.656C396.197 28.7147 397.008 36.6934 397.008 46.592C397.008 56.4054 396.197 64.384 394.576 70.528C392.955 76.672 390.523 81.4507 387.28 84.864C384.123 88.192 380.24 90.4534 375.632 91.648C371.024 92.8427 365.691 93.44 359.632 93.44C353.573 93.44 348.197 92.8427 343.504 91.648C338.811 90.4534 334.843 88.1494 331.6 84.736C328.443 81.3227 326.053 76.544 324.432 70.4C322.811 64.256 322 56.2774 322 46.464ZM343.12 46.592C343.12 53.1627 343.12 58.8374 343.12 63.616C343.205 68.3094 343.717 72.192 344.656 75.264C345.68 78.336 347.301 80.5974 349.52 82.048C351.824 83.4987 355.195 84.224 359.632 84.224C364.069 84.224 367.397 83.4987 369.616 82.048C371.92 80.5974 373.499 78.336 374.352 75.264C375.291 72.192 375.76 68.3094 375.76 63.616C375.845 58.8374 375.888 53.1627 375.888 46.592C375.888 40.0213 375.845 34.3893 375.76 29.696C375.76 24.9173 375.291 20.992 374.352 17.92C373.499 14.848 371.92 12.5867 369.616 11.136C367.397 9.68535 364.069 8.96001 359.632 8.96001C355.195 8.96001 351.824 9.68535 349.52 11.136C347.301 12.5867 345.68 14.848 344.656 17.92C343.717 20.992 343.205 24.9173 343.12 29.696C343.12 34.3893 343.12 40.0213 343.12 46.592Z" fill="#1C1B15"/>
</svg>
