<svg width="416" height="83" viewBox="0 0 416 83" fill="none" xmlns="http://www.w3.org/2000/svg">
<path d="M56.8672 68.1387L57.377 68.5918C59.0762 70.291 60.9642 71.6693 63.041 72.7266C65.1178 73.7461 66.8359 74.2936 68.1953 74.3691L71.5371 74.0859V81.5059H43.8398L43.7266 74.0859C44.0664 74.0859 44.2741 73.8783 44.3496 73.4629C44.3496 73.3496 44.293 73.2363 44.1797 73.123L44.0098 72.9531L25.9414 54.375C25.7904 54.2617 25.6393 54.1484 25.4883 54.0352L25.375 53.9219C24.2422 53.0911 23.166 52.166 22.1465 51.1465L21.75 50.75V70.8008C21.75 71.7448 22.0898 72.5755 22.7695 73.293C23.4492 73.9727 24.2611 74.3314 25.2051 74.3691L28.5469 74.0859V81.5059H0V74.0859L3.28516 74.3691C4.26693 74.3314 5.07878 73.9727 5.7207 73.293C6.40039 72.5755 6.74023 71.7448 6.74023 70.8008V11.2715C6.74023 10.3275 6.40039 9.51562 5.7207 8.83594C5.07878 8.15625 4.26693 7.79753 3.28516 7.75977L0 8.04297V0.623047H44.0098C44.3118 0.623047 44.5951 0.641927 44.8594 0.679688H44.9727L46.8418 0.849609L49.6172 1.18945V1.35938C49.8815 1.39714 50.1458 1.45378 50.4102 1.5293C55.6589 2.85091 60.209 5.4375 64.0605 9.28906C66.9303 12.1966 69.0827 15.4629 70.5176 19.0879C71.9525 22.7129 72.6699 26.4134 72.6699 30.1895C72.6699 34.0033 71.9525 37.7227 70.5176 41.3477C69.0827 44.9727 66.9303 48.2389 64.0605 51.1465C60.6243 54.5827 56.6029 57.0182 51.9961 58.4531V58.5098L50.4102 58.9062C49.7305 59.0951 49.0508 59.2461 48.3711 59.3594L56.8672 68.1387ZM21.75 11.2715V37.2695C22.9206 40.6302 24.752 43.5755 27.2441 46.1055C27.4329 46.332 27.6595 46.5586 27.9238 46.7852C31.9264 50.4102 36.6465 52.3737 42.084 52.6758H43.1035C49.1074 52.6758 54.3939 50.4857 58.9629 46.1055C60.7754 44.2552 61.6816 41.7819 61.6816 38.6855C61.6816 37.3262 61.4928 35.8724 61.1152 34.3242C59.7181 28.5091 56.4896 23.0527 51.4297 17.9551C46.5964 13.1595 41.4043 10.0065 35.8535 8.49609C35.4004 8.30729 34.9284 8.19401 34.4375 8.15625C33.418 7.92969 32.4173 7.79753 31.4355 7.75977H25.3184C24.3366 7.75977 23.487 8.09961 22.7695 8.7793C22.0898 9.45898 21.75 10.2897 21.75 11.2715ZM154.572 70.6875C150.645 74.6146 146.171 77.6165 141.148 79.6934C136.164 81.7702 130.915 82.8086 125.402 82.8086C119.889 82.8086 114.622 81.7702 109.6 79.6934C104.615 77.6165 100.16 74.6146 96.2324 70.6875C92.3053 66.7604 89.3034 62.3047 87.2266 57.3203C85.1497 52.2982 84.1113 47.0306 84.1113 41.5176C84.1113 36.0046 85.1497 30.7559 87.2266 25.7715C89.3034 20.7493 92.3053 16.2747 96.2324 12.3477C100.16 8.42057 104.615 5.41862 109.6 3.3418C114.622 1.26497 119.889 0.226562 125.402 0.226562C130.915 0.226562 136.164 1.26497 141.148 3.3418C146.171 5.41862 150.645 8.42057 154.572 12.3477C158.499 16.2747 161.482 20.7493 163.521 25.7715C165.598 30.7559 166.637 36.0046 166.637 41.5176C166.637 47.0306 165.598 52.2982 163.521 57.3203C161.482 62.3047 158.499 66.7604 154.572 70.6875ZM117.529 11.1582C111.035 11.1582 105.616 13.2539 101.273 17.4453C97.082 21.7878 94.9863 27.2064 94.9863 33.7012C94.9863 34.8717 95.0618 36.0423 95.2129 37.2129C96.3457 45.6335 100.235 53.2422 106.881 60.0391C110.695 63.8151 114.886 66.7415 119.455 68.8184C124.062 70.8574 128.669 71.877 133.275 71.877C139.808 71.877 145.208 69.8001 149.475 65.6465C153.666 61.2663 155.762 55.8477 155.762 49.3906C155.762 48.1823 155.686 46.9551 155.535 45.709C154.402 37.3262 150.532 29.7552 143.924 22.9961C140.11 19.2201 135.9 16.3125 131.293 14.2734C126.724 12.1966 122.136 11.1582 117.529 11.1582ZM219.312 32.7383C227.544 35.306 234.171 39.252 239.193 44.5762C242.743 48.541 244.518 52.9023 244.518 57.6602C244.518 61.625 243.423 65.2878 241.232 68.6484C239.307 71.6315 236.569 74.2181 233.02 76.4082C226.072 80.5241 218.595 82.582 210.59 82.582C207.04 82.582 203.793 82.1289 200.848 81.2227C196.279 79.7878 191.294 77.5599 185.895 74.5391V74.5957L186.178 77.8809H178.701V49.1074H186.178L185.895 52.4492C185.895 53.1667 186.102 53.8275 186.518 54.4316C187.952 56.3952 189.538 58.2643 191.275 60.0391C191.464 60.1523 191.634 60.3034 191.785 60.4922C195.561 64.1549 199.715 66.987 204.246 68.9883C208.777 70.9518 213.309 71.9336 217.84 71.9336C221.314 71.9336 224.505 71.3483 227.412 70.1777C229.413 69.347 230.905 68.4974 231.887 67.6289C232.868 66.7227 233.492 65.873 233.756 65.0801C234.058 64.2871 234.209 63.6263 234.209 63.0977C234.209 62.7956 234.19 62.5501 234.152 62.3613C233.661 58.5098 231.736 55.4134 228.375 53.0723C225.014 50.7311 221.219 48.8431 216.99 47.4082C214.158 46.4264 211.27 45.6901 208.324 45.1992C206.398 44.8216 204.397 44.3874 202.32 43.8965C200.281 43.4056 198.11 42.6693 195.807 41.6875C194.447 41.1589 192.71 40.2904 190.596 39.082C188.519 37.8737 186.461 36.3066 184.422 34.3809C180.268 30.3783 178.191 25.998 178.191 21.2402C178.191 14.7077 181.873 9.38346 189.236 5.26758C194.598 2.39779 200.546 0.679688 207.078 0.113281C208.135 0.0377604 209.174 0 210.193 0H211.779C214.574 0.188802 217.519 0.774089 220.615 1.75586C223.712 2.73763 226.279 3.66276 228.318 4.53125H228.545C228.62 4.53125 228.715 4.49349 228.828 4.41797C228.979 4.34245 229.055 4.22917 229.055 4.07812L228.828 0.736328H236.305V28.1504H228.828L229.055 24.8086C229.055 23.9023 228.715 23.1094 228.035 22.4297V22.373L227.979 22.3164L227.865 22.2598C226.468 20.8249 224.995 19.5221 223.447 18.3516C220.011 15.7083 216.386 13.6504 212.572 12.1777C208.758 10.6673 205.133 9.91211 201.697 9.91211C199.507 9.91211 197.204 10.2897 194.787 11.0449C192.408 11.7624 190.652 12.8952 189.52 14.4434C189.029 15.2363 188.783 16.1048 188.783 17.0488C188.783 19.0879 189.614 21.0137 191.275 22.8262C192.71 24.2233 194.372 25.3561 196.26 26.2246C198.186 27.0931 200.149 27.8483 202.15 28.4902C202.15 28.4902 202.434 28.5846 203 28.7734C205.228 29.5286 207.399 30.0762 209.514 30.416C211.93 30.7559 215.197 31.5299 219.312 32.7383ZM296.457 32.7383C304.689 35.306 311.316 39.252 316.338 44.5762C319.887 48.541 321.662 52.9023 321.662 57.6602C321.662 61.625 320.567 65.2878 318.377 68.6484C316.451 71.6315 313.714 74.2181 310.164 76.4082C303.216 80.5241 295.74 82.582 287.734 82.582C284.185 82.582 280.938 82.1289 277.992 81.2227C273.423 79.7878 268.439 77.5599 263.039 74.5391V74.5957L263.322 77.8809H255.846V49.1074H263.322L263.039 52.4492C263.039 53.1667 263.247 53.8275 263.662 54.4316C265.097 56.3952 266.683 58.2643 268.42 60.0391C268.609 60.1523 268.779 60.3034 268.93 60.4922C272.706 64.1549 276.859 66.987 281.391 68.9883C285.922 70.9518 290.453 71.9336 294.984 71.9336C298.458 71.9336 301.649 71.3483 304.557 70.1777C306.558 69.347 308.049 68.4974 309.031 67.6289C310.013 66.7227 310.636 65.873 310.9 65.0801C311.202 64.2871 311.354 63.6263 311.354 63.0977C311.354 62.7956 311.335 62.5501 311.297 62.3613C310.806 58.5098 308.88 55.4134 305.52 53.0723C302.159 50.7311 298.364 48.8431 294.135 47.4082C291.303 46.4264 288.414 45.6901 285.469 45.1992C283.543 44.8216 281.542 44.3874 279.465 43.8965C277.426 43.4056 275.255 42.6693 272.951 41.6875C271.592 41.1589 269.855 40.2904 267.74 39.082C265.663 37.8737 263.605 36.3066 261.566 34.3809C257.413 30.3783 255.336 25.998 255.336 21.2402C255.336 14.7077 259.018 9.38346 266.381 5.26758C271.743 2.39779 277.69 0.679688 284.223 0.113281C285.28 0.0377604 286.318 0 287.338 0H288.924C291.718 0.188802 294.663 0.774089 297.76 1.75586C300.856 2.73763 303.424 3.66276 305.463 4.53125H305.689C305.765 4.53125 305.859 4.49349 305.973 4.41797C306.124 4.34245 306.199 4.22917 306.199 4.07812L305.973 0.736328H313.449V28.1504H305.973L306.199 24.8086C306.199 23.9023 305.859 23.1094 305.18 22.4297V22.373L305.123 22.3164L305.01 22.2598C303.613 20.8249 302.14 19.5221 300.592 18.3516C297.156 15.7083 293.531 13.6504 289.717 12.1777C285.903 10.6673 282.278 9.91211 278.842 9.91211C276.652 9.91211 274.348 10.2897 271.932 11.0449C269.553 11.7624 267.797 12.8952 266.664 14.4434C266.173 15.2363 265.928 16.1048 265.928 17.0488C265.928 19.0879 266.758 21.0137 268.42 22.8262C269.855 24.2233 271.516 25.3561 273.404 26.2246C275.33 27.0931 277.294 27.8483 279.295 28.4902C279.295 28.4902 279.578 28.5846 280.145 28.7734C282.372 29.5286 284.544 30.0762 286.658 30.416C289.075 30.7559 292.341 31.5299 296.457 32.7383ZM402.998 70.6875C399.071 74.6146 394.596 77.6165 389.574 79.6934C384.59 81.7702 379.341 82.8086 373.828 82.8086C368.315 82.8086 363.048 81.7702 358.025 79.6934C353.041 77.6165 348.585 74.6146 344.658 70.6875C340.731 66.7604 337.729 62.3047 335.652 57.3203C333.576 52.2982 332.537 47.0306 332.537 41.5176C332.537 36.0046 333.576 30.7559 335.652 25.7715C337.729 20.7493 340.731 16.2747 344.658 12.3477C348.585 8.42057 353.041 5.41862 358.025 3.3418C363.048 1.26497 368.315 0.226562 373.828 0.226562C379.341 0.226562 384.59 1.26497 389.574 3.3418C394.596 5.41862 399.071 8.42057 402.998 12.3477C406.925 16.2747 409.908 20.7493 411.947 25.7715C414.024 30.7559 415.062 36.0046 415.062 41.5176C415.062 47.0306 414.024 52.2982 411.947 57.3203C409.908 62.3047 406.925 66.7604 402.998 70.6875ZM365.955 11.1582C359.46 11.1582 354.042 13.2539 349.699 17.4453C345.508 21.7878 343.412 27.2064 343.412 33.7012C343.412 34.8717 343.488 36.0423 343.639 37.2129C344.771 45.6335 348.661 53.2422 355.307 60.0391C359.12 63.8151 363.312 66.7415 367.881 68.8184C372.488 70.8574 377.094 71.877 381.701 71.877C388.234 71.877 393.633 69.8001 397.9 65.6465C402.092 61.2663 404.188 55.8477 404.188 49.3906C404.188 48.1823 404.112 46.9551 403.961 45.709C402.828 37.3262 398.958 29.7552 392.35 22.9961C388.536 19.2201 384.326 16.3125 379.719 14.2734C375.15 12.1966 370.562 11.1582 365.955 11.1582Z" fill="#1C1B15"/>
</svg>
